<?xml version="1.0" encoding="UTF-8" standalone="no"?>
<!-- Created with Inkscape (http://www.inkscape.org/) -->

<svg
   xmlns:dc="http://purl.org/dc/elements/1.1/"
   xmlns:cc="http://creativecommons.org/ns#"
   xmlns:rdf="http://www.w3.org/1999/02/22-rdf-syntax-ns#"
   xmlns:svg="http://www.w3.org/2000/svg"
   xmlns="http://www.w3.org/2000/svg"
   xmlns:sodipodi="http://sodipodi.sourceforge.net/DTD/sodipodi-0.dtd"
   xmlns:inkscape="http://www.inkscape.org/namespaces/inkscape"
   width="512"
   height="512"
   viewBox="0 0 512 512"
   id="svg2"
   version="1.1"
   inkscape:version="0.91 r13725"
   sodipodi:docname="drawing3.svg"
   inkscape:export-filename="/Users/oleksiypolshchak/Dropbox/Corsacteam Team Folder/Design/drawing5.png"
   inkscape:export-xdpi="337.5"
   inkscape:export-ydpi="337.5">
  <defs
     id="defs4">
    <inkscape:path-effect
       effect="powerstroke"
       id="path-effect4189"
       is_visible="true"
       offset_points="0,0.5"
       sort_points="true"
       interpolator_type="CubicBezierJohan"
       interpolator_beta="0.2"
       start_linecap_type="zerowidth"
       linejoin_type="round"
       miter_limit="4"
       end_linecap_type="zerowidth"
       cusp_linecap_type="round" />
  </defs>
  <sodipodi:namedview
     id="base"
     pagecolor="#ffffff"
     bordercolor="#666666"
     borderopacity="1.0"
     inkscape:pageopacity="0.0"
     inkscape:pageshadow="2"
     inkscape:zoom="1.4693336"
     inkscape:cx="104.24827"
     inkscape:cy="344.27224"
     inkscape:document-units="px"
     inkscape:current-layer="layer4"
     showgrid="true"
     units="px"
     width="512px"
     borderlayer="false"
     inkscape:window-width="1920"
     inkscape:window-height="1099"
     inkscape:window-x="0"
     inkscape:window-y="186"
     inkscape:window-maximized="1"
     showguides="true">
    <inkscape:grid
       type="xygrid"
       id="grid4976" />
  </sodipodi:namedview>
  <metadata
     id="metadata7">
    <rdf:RDF>
      <cc:Work
         rdf:about="">
        <dc:format>image/svg+xml</dc:format>
        <dc:type
           rdf:resource="http://purl.org/dc/dcmitype/StillImage" />
        <dc:title></dc:title>
      </cc:Work>
    </rdf:RDF>
  </metadata>
  <g
     inkscape:groupmode="layer"
     id="layer2"
     inkscape:label="Layer 2"
     style="display:inline;opacity:1" />
  <g
     inkscape:label="Layer 1"
     inkscape:groupmode="layer"
     id="layer1"
     transform="translate(0,-540.3622)"
     style="opacity:1" />
  <g
     inkscape:groupmode="layer"
     id="layer4"
     inkscape:label="Layer 3"
     style="opacity:1">
    <path
       style="display:inline;opacity:1;fill:#0c96eb;fill-opacity:1;stroke:none;stroke-width:2;stroke-opacity:1;stroke-miterlimit:4;stroke-dasharray:none"
       d="M 256.66797 26.509766 A 77.034477 77.034477 0 0 0 179.63281 103.54492 A 77.034477 77.034477 0 0 0 218.50781 170.39453 L 119.38086 342.08984 A 77.034477 77.034477 0 0 0 79.259766 330.70508 A 77.034477 77.034477 0 0 0 2.2265625 407.74023 A 77.034477 77.034477 0 0 0 79.259766 484.77344 A 77.034477 77.034477 0 0 0 156.29492 407.74023 A 77.034477 77.034477 0 0 0 156.26758 406.99414 L 355.72852 406.99414 A 77.034477 77.034477 0 0 0 355.70508 407.45703 A 77.034477 77.034477 0 0 0 432.74023 484.49219 A 77.034477 77.034477 0 0 0 509.77344 407.45703 A 77.034477 77.034477 0 0 0 432.74023 330.42188 A 77.034477 77.034477 0 0 0 394.69336 340.58398 L 296.01562 169.67188 A 77.034477 77.034477 0 0 0 333.70312 103.54492 A 77.034477 77.034477 0 0 0 256.66797 26.509766 z "
       id="path4195" />
    <path
       sodipodi:type="star"
       style="opacity:1;fill:#00e4ff;fill-opacity:1;stroke:#00e4ff;stroke-opacity:1"
       id="path4142"
       sodipodi:sides="6"
       sodipodi:cx="187.12968"
       sodipodi:cy="752.73517"
       sodipodi:r1="134.89525"
       sodipodi:r2="117.22397"
       sodipodi:arg1="0.78539816"
       sodipodi:arg2="1.3089969"
       inkscape:flatsided="false"
       inkscape:rounded="-3.46945e-18"
       inkscape:randomized="0"
       d="m 282.51503,848.12051 -65.04555,17.84432 -65.25325,17.06914 -47.97641,-47.40894 -47.40894,-47.9764 17.069145,-65.25325 17.844314,-65.04556 65.045541,-17.84431 65.25326,-17.06915 47.9764,47.40894 47.40895,47.97641 -17.06915,65.25325 z"
       transform="matrix(0.3692932,0.09895179,-0.09895179,0.3692932,262.51925,-194.20736)" />
    <path
       sodipodi:type="star"
       style="opacity:1;fill:#00e4ff;fill-opacity:1;stroke:#00e4ff;stroke-width:0.62460005;stroke-opacity:1"
       id="path4207"
       sodipodi:sides="3"
       sodipodi:cx="433.33636"
       sodipodi:cy="406.6214"
       sodipodi:r1="55.921402"
       sodipodi:r2="27.960699"
       sodipodi:arg1="-1.5707963"
       sodipodi:arg2="-0.52359878"
       inkscape:flatsided="true"
       inkscape:rounded="-3.46945e-18"
       inkscape:randomized="0"
       d="m 433.33637,350.7 48.42935,83.8821 -96.85871,0 z"
       inkscape:transform-center-y="-15.701722"
       inkscape:transform-center-x="1.1241573e-05" />
    <rect
       style="fill:#00e4ff;fill-opacity:1;stroke:#00e4ff;stroke-width:5.46172619;stroke-miterlimit:4;stroke-dasharray:none;stroke-opacity:1"
       id="rect4950"
       width="72.479271"
       height="72.479271"
       x="44.706863"
       y="371.60587" />
  </g>
  <g
     inkscape:groupmode="layer"
     id="layer5"
     inkscape:label="Layer 4"
     style="opacity:1">
    <g
       id="g4978" />
    <g
       id="g5123"
       transform="matrix(0.80554034,0,0,0.80554034,47.131688,86.33997)">
      <path
         inkscape:connector-curvature="0"
         id="path5095"
         d="m 225.29985,262.72779 -3.55078,10.30469 a 40,40 0 0 0 -4.51171,1.30469 40,40 0 0 0 -0.002,0 40,40 0 0 0 -0.0156,0.006 40,40 0 0 0 -3.26172,1.27735 40,40 0 0 0 -5.56445,2.94336 l -9.79688,-4.77539 -6.98828,6.98828 4.7832,9.8125 a 40,40 0 0 0 -3.70898,7.52148 40,40 0 0 0 -1.11524,3.41797 40,40 0 0 0 -0.59961,2.28516 l -10.30468,3.55078 0,9.88281 10.32031,3.55664 a 40,40 0 0 0 2.77734,8.09766 40,40 0 0 0 1.14844,2.26562 40,40 0 0 0 0.46484,0.88672 40,40 0 0 0 1.125,1.93555 l -4.77539,9.79687 6.98829,6.98828 9.8125,-4.78125 a 40,40 0 0 0 7.86328,3.83594 40,40 0 0 0 0.82812,0.27344 40,40 0 0 0 2.61914,0.81836 40,40 0 0 0 1.91406,0.49414 l 3.55078,10.30468 9.88282,0 3.55664,-10.32031 a 40,40 0 0 0 4.78906,-1.41797 40,40 0 0 0 1.08008,-0.41797 40,40 0 0 0 2.25781,-0.93554 40,40 0 0 0 2.41406,-1.22071 40,40 0 0 0 0.8086,-0.43554 40,40 0 0 0 1.70507,-0.98047 l 9.8125,4.7832 6.98829,-6.98828 -4.77539,-9.79687 a 40,40 0 0 0 0.58789,-1.02539 40,40 0 0 0 0.48046,-0.83985 40,40 0 0 0 1.21094,-2.25976 40,40 0 0 0 1.08203,-2.42579 40,40 0 0 0 0.33203,-0.79882 40,40 0 0 0 1.82227,-5.83594 l 10.32031,-3.55664 0,-9.88281 -10.30468,-3.55078 a 40,40 0 0 0 -0.30665,-1.125 40,40 0 0 0 -0.3164,-1.16992 40,40 0 0 0 -0.67578,-2.21875 40,40 0 0 0 -0.97266,-2.54493 40,40 0 0 0 -0.31836,-0.75976 40,40 0 0 0 -2.83203,-5.40625 l 4.78125,-9.8125 -6.98828,-6.98828 -9.79688,4.77539 a 40,40 0 0 0 -0.98242,-0.56055 40,40 0 0 0 -1.19726,-0.68359 40,40 0 0 0 -1.85352,-0.98828 40,40 0 0 0 -2.86719,-1.27735 40,40 0 0 0 -0.32031,-0.13086 40,40 0 0 0 -5.96484,-1.875 l -3.55664,-10.32031 -9.88282,0 z m 4.88868,34.21289 a 15.221868,15.221868 0 0 1 15.22265,15.2207 15.221868,15.221868 0 0 1 -15.22265,15.22266 15.221868,15.221868 0 0 1 -15.22071,-15.22266 15.221868,15.221868 0 0 1 15.22071,-15.2207 z"
         style="fill:#00e4ff;fill-opacity:1;stroke:none;stroke-width:4.45200014;stroke-miterlimit:4;stroke-dasharray:none;stroke-opacity:1" />
      <path
         style="fill:#00e4ff;fill-opacity:1;stroke:none;stroke-width:4.45200014;stroke-miterlimit:4;stroke-dasharray:none;stroke-opacity:1"
         d="m 315.29985,248.72779 -3.55078,10.30469 a 40,40 0 0 0 -4.51171,1.30469 40,40 0 0 0 -0.002,0 40,40 0 0 0 -0.0156,0.006 40,40 0 0 0 -3.26172,1.27735 40,40 0 0 0 -5.56445,2.94336 l -9.79688,-4.77539 -6.98828,6.98828 4.7832,9.8125 a 40,40 0 0 0 -3.70898,7.52148 40,40 0 0 0 -1.11524,3.41797 40,40 0 0 0 -0.59961,2.28516 l -10.30468,3.55078 0,9.88281 10.32031,3.55664 a 40,40 0 0 0 2.77734,8.09766 40,40 0 0 0 1.14844,2.26562 40,40 0 0 0 0.46484,0.88672 40,40 0 0 0 1.125,1.93555 l -4.77539,9.79687 6.98829,6.98828 9.8125,-4.78125 a 40,40 0 0 0 7.86328,3.83594 40,40 0 0 0 0.82812,0.27344 40,40 0 0 0 2.61914,0.81836 40,40 0 0 0 1.91406,0.49414 l 3.55078,10.30468 9.88282,0 3.55664,-10.32031 a 40,40 0 0 0 4.78906,-1.41797 40,40 0 0 0 1.08008,-0.41797 40,40 0 0 0 2.25781,-0.93554 40,40 0 0 0 2.41406,-1.22071 40,40 0 0 0 0.8086,-0.43554 40,40 0 0 0 1.70507,-0.98047 l 9.8125,4.7832 6.98829,-6.98828 -4.77539,-9.79687 a 40,40 0 0 0 0.58789,-1.02539 40,40 0 0 0 0.48046,-0.83985 40,40 0 0 0 1.21094,-2.25976 40,40 0 0 0 1.08203,-2.42579 40,40 0 0 0 0.33203,-0.79882 40,40 0 0 0 1.82227,-5.83594 l 10.32031,-3.55664 0,-9.88281 -10.30468,-3.55078 a 40,40 0 0 0 -0.30665,-1.125 40,40 0 0 0 -0.3164,-1.16992 40,40 0 0 0 -0.67578,-2.21875 40,40 0 0 0 -0.97266,-2.54493 40,40 0 0 0 -0.31836,-0.75976 40,40 0 0 0 -2.83203,-5.40625 l 4.78125,-9.8125 -6.98828,-6.98828 -9.79688,4.77539 a 40,40 0 0 0 -0.98242,-0.56055 40,40 0 0 0 -1.19726,-0.68359 40,40 0 0 0 -1.85352,-0.98828 40,40 0 0 0 -2.86719,-1.27735 40,40 0 0 0 -0.32031,-0.13086 40,40 0 0 0 -5.96484,-1.875 l -3.55664,-10.32031 -9.88282,0 z m 4.88868,34.21289 a 15.221868,15.221868 0 0 1 15.22265,15.2207 15.221868,15.221868 0 0 1 -15.22265,15.22266 15.221868,15.221868 0 0 1 -15.22071,-15.22266 15.221868,15.221868 0 0 1 15.22071,-15.2207 z"
         id="path5119"
         inkscape:connector-curvature="0" />
      <path
         style="fill:#00e4ff;fill-opacity:1;stroke:none;stroke-width:4.45200014;stroke-miterlimit:4;stroke-dasharray:none;stroke-opacity:1"
         d="m 239.29985,172.72779 -3.55078,10.30469 a 40,40 0 0 0 -4.51171,1.30469 40,40 0 0 0 -0.002,0 40,40 0 0 0 -0.0156,0.006 40,40 0 0 0 -3.26172,1.27735 40,40 0 0 0 -5.56445,2.94336 l -9.79688,-4.77539 -6.98828,6.98828 4.7832,9.8125 a 40,40 0 0 0 -3.70898,7.52148 40,40 0 0 0 -1.11524,3.41797 40,40 0 0 0 -0.59961,2.28516 l -10.30468,3.55078 0,9.88281 10.32031,3.55664 a 40,40 0 0 0 2.77734,8.09766 40,40 0 0 0 1.14844,2.26562 40,40 0 0 0 0.46484,0.88672 40,40 0 0 0 1.125,1.93555 l -4.77539,9.79687 6.98829,6.98828 9.8125,-4.78125 a 40,40 0 0 0 7.86328,3.83594 40,40 0 0 0 0.82812,0.27344 40,40 0 0 0 2.61914,0.81836 40,40 0 0 0 1.91406,0.49414 l 3.55078,10.30468 9.88282,0 3.55664,-10.32031 a 40,40 0 0 0 4.78906,-1.41797 40,40 0 0 0 1.08008,-0.41797 40,40 0 0 0 2.25781,-0.93554 40,40 0 0 0 2.41406,-1.22071 40,40 0 0 0 0.8086,-0.43554 40,40 0 0 0 1.70507,-0.98047 l 9.8125,4.7832 6.98829,-6.98828 -4.77539,-9.79687 a 40,40 0 0 0 0.58789,-1.02539 40,40 0 0 0 0.48046,-0.83985 40,40 0 0 0 1.21094,-2.25976 40,40 0 0 0 1.08203,-2.42579 40,40 0 0 0 0.33203,-0.79882 40,40 0 0 0 1.82227,-5.83594 l 10.32031,-3.55664 0,-9.88281 -10.30468,-3.55078 a 40,40 0 0 0 -0.30665,-1.125 40,40 0 0 0 -0.3164,-1.16992 40,40 0 0 0 -0.67578,-2.21875 40,40 0 0 0 -0.97266,-2.54493 40,40 0 0 0 -0.31836,-0.75976 40,40 0 0 0 -2.83203,-5.40625 l 4.78125,-9.8125 -6.98828,-6.98828 -9.79688,4.77539 a 40,40 0 0 0 -0.98242,-0.56055 40,40 0 0 0 -1.19726,-0.68359 40,40 0 0 0 -1.85352,-0.98828 40,40 0 0 0 -2.86719,-1.27735 40,40 0 0 0 -0.32031,-0.13086 40,40 0 0 0 -5.96484,-1.875 l -3.55664,-10.32031 -9.88282,0 z m 4.88868,34.21289 a 15.221868,15.221868 0 0 1 15.22265,15.2207 15.221868,15.221868 0 0 1 -15.22265,15.22266 15.221868,15.221868 0 0 1 -15.22071,-15.22266 15.221868,15.221868 0 0 1 15.22071,-15.2207 z"
         id="path5121"
         inkscape:connector-curvature="0" />
    </g>
  </g>
</svg>
